<mxfile host="Electron" agent="Mozilla/5.0 (Windows NT 10.0; Win64; x64) AppleWebKit/537.36 (KHTML, like Gecko) draw.io/26.2.2 Chrome/134.0.6998.178 Electron/35.1.2 Safari/537.36" version="26.2.2">
  <diagram name="Page-1" id="zG3NqZBwZe0RXJjB_kZK">
    <mxGraphModel dx="-62" dy="516" grid="1" gridSize="10" guides="1" tooltips="1" connect="1" arrows="1" fold="1" page="1" pageScale="1" pageWidth="850" pageHeight="1100" math="0" shadow="0">
      <root>
        <mxCell id="0" />
        <mxCell id="1" parent="0" />
        <mxCell id="FeYoDRjKLg40EUXZpd3p-1" value="&lt;font style=&quot;font-size: 18px;&quot;&gt;&lt;b&gt;Data Flow Diagram&lt;/b&gt;&lt;/font&gt;" style="text;html=1;align=center;verticalAlign=middle;resizable=0;points=[];autosize=1;strokeColor=none;fillColor=none;" parent="1" vertex="1">
          <mxGeometry x="880" y="25" width="190" height="40" as="geometry" />
        </mxCell>
        <mxCell id="FeYoDRjKLg40EUXZpd3p-2" value="" style="rounded=0;whiteSpace=wrap;html=1;fillColor=none;dashed=1;" parent="1" vertex="1">
          <mxGeometry x="1030" y="120" width="110" height="370" as="geometry" />
        </mxCell>
        <mxCell id="FeYoDRjKLg40EUXZpd3p-3" value="&lt;b&gt;Sources&lt;/b&gt;" style="rounded=1;whiteSpace=wrap;html=1;strokeColor=none;" parent="1" vertex="1">
          <mxGeometry x="1040" y="110" width="90" height="24" as="geometry" />
        </mxCell>
        <mxCell id="FeYoDRjKLg40EUXZpd3p-14" style="edgeStyle=orthogonalEdgeStyle;rounded=0;orthogonalLoop=1;jettySize=auto;html=1;entryX=0;entryY=0.5;entryDx=0;entryDy=0;" parent="1" source="FeYoDRjKLg40EUXZpd3p-4" target="FeYoDRjKLg40EUXZpd3p-12" edge="1">
          <mxGeometry relative="1" as="geometry" />
        </mxCell>
        <mxCell id="FeYoDRjKLg40EUXZpd3p-15" style="edgeStyle=orthogonalEdgeStyle;rounded=0;orthogonalLoop=1;jettySize=auto;html=1;entryX=0;entryY=0.5;entryDx=0;entryDy=0;" parent="1" source="FeYoDRjKLg40EUXZpd3p-4" target="FeYoDRjKLg40EUXZpd3p-11" edge="1">
          <mxGeometry relative="1" as="geometry" />
        </mxCell>
        <mxCell id="FeYoDRjKLg40EUXZpd3p-16" style="edgeStyle=orthogonalEdgeStyle;rounded=0;orthogonalLoop=1;jettySize=auto;html=1;entryX=0;entryY=0.5;entryDx=0;entryDy=0;" parent="1" source="FeYoDRjKLg40EUXZpd3p-4" target="FeYoDRjKLg40EUXZpd3p-13" edge="1">
          <mxGeometry relative="1" as="geometry" />
        </mxCell>
        <mxCell id="FeYoDRjKLg40EUXZpd3p-4" value="" style="image;aspect=fixed;html=1;points=[];align=center;fontSize=12;image=img/lib/azure2/general/Folder_Blank.svg;" parent="1" vertex="1">
          <mxGeometry x="1062.82" y="190" width="44.36" height="36" as="geometry" />
        </mxCell>
        <mxCell id="FeYoDRjKLg40EUXZpd3p-5" value="&lt;b&gt;CRM&lt;/b&gt;" style="text;html=1;align=center;verticalAlign=middle;whiteSpace=wrap;rounded=0;" parent="1" vertex="1">
          <mxGeometry x="1055" y="230" width="60" height="20" as="geometry" />
        </mxCell>
        <mxCell id="FeYoDRjKLg40EUXZpd3p-6" value="&lt;b&gt;ERP&lt;/b&gt;" style="text;html=1;align=center;verticalAlign=middle;whiteSpace=wrap;rounded=0;" parent="1" vertex="1">
          <mxGeometry x="1055" y="370" width="60" height="20" as="geometry" />
        </mxCell>
        <mxCell id="FeYoDRjKLg40EUXZpd3p-21" style="edgeStyle=orthogonalEdgeStyle;rounded=0;orthogonalLoop=1;jettySize=auto;html=1;entryX=0;entryY=0.5;entryDx=0;entryDy=0;" parent="1" source="FeYoDRjKLg40EUXZpd3p-7" target="FeYoDRjKLg40EUXZpd3p-17" edge="1">
          <mxGeometry relative="1" as="geometry" />
        </mxCell>
        <mxCell id="FeYoDRjKLg40EUXZpd3p-22" style="edgeStyle=orthogonalEdgeStyle;rounded=0;orthogonalLoop=1;jettySize=auto;html=1;entryX=0;entryY=0.5;entryDx=0;entryDy=0;" parent="1" source="FeYoDRjKLg40EUXZpd3p-7" target="FeYoDRjKLg40EUXZpd3p-18" edge="1">
          <mxGeometry relative="1" as="geometry" />
        </mxCell>
        <mxCell id="FeYoDRjKLg40EUXZpd3p-23" style="edgeStyle=orthogonalEdgeStyle;rounded=0;orthogonalLoop=1;jettySize=auto;html=1;entryX=0;entryY=0.5;entryDx=0;entryDy=0;" parent="1" source="FeYoDRjKLg40EUXZpd3p-7" target="FeYoDRjKLg40EUXZpd3p-19" edge="1">
          <mxGeometry relative="1" as="geometry" />
        </mxCell>
        <mxCell id="FeYoDRjKLg40EUXZpd3p-7" value="" style="image;aspect=fixed;html=1;points=[];align=center;fontSize=12;image=img/lib/azure2/general/Folder_Blank.svg;" parent="1" vertex="1">
          <mxGeometry x="1062.82" y="330" width="44.36" height="36" as="geometry" />
        </mxCell>
        <mxCell id="FeYoDRjKLg40EUXZpd3p-8" value="" style="rounded=1;whiteSpace=wrap;html=1;fillStyle=hatch;" parent="1" vertex="1">
          <mxGeometry x="1180" y="150" width="110" height="340" as="geometry" />
        </mxCell>
        <mxCell id="FeYoDRjKLg40EUXZpd3p-10" value="Bronze Layer" style="rounded=1;whiteSpace=wrap;html=1;fillColor=#ffe6cc;strokeColor=#d79b00;" parent="1" vertex="1">
          <mxGeometry x="1185" y="120" width="100" height="27" as="geometry" />
        </mxCell>
        <mxCell id="CHF7Ts3Sy9HAa7SA-2jZ-9" style="edgeStyle=orthogonalEdgeStyle;rounded=0;orthogonalLoop=1;jettySize=auto;html=1;entryX=0;entryY=0.5;entryDx=0;entryDy=0;" edge="1" parent="1" source="FeYoDRjKLg40EUXZpd3p-11" target="CHF7Ts3Sy9HAa7SA-2jZ-3">
          <mxGeometry relative="1" as="geometry" />
        </mxCell>
        <mxCell id="FeYoDRjKLg40EUXZpd3p-11" value="&lt;span style=&quot;font-size: 10px;&quot;&gt;crm_sales_details&lt;/span&gt;" style="rounded=1;whiteSpace=wrap;html=1;fillColor=#ffe6cc;strokeColor=#d79b00;" parent="1" vertex="1">
          <mxGeometry x="1192.5" y="183" width="85" height="27" as="geometry" />
        </mxCell>
        <mxCell id="FeYoDRjKLg40EUXZpd3p-12" value="&lt;font size=&quot;1&quot;&gt;crm_cust_info&lt;/font&gt;" style="rounded=1;whiteSpace=wrap;html=1;fillColor=#ffe6cc;strokeColor=#d79b00;" parent="1" vertex="1">
          <mxGeometry x="1192.5" y="230" width="85" height="27" as="geometry" />
        </mxCell>
        <mxCell id="FeYoDRjKLg40EUXZpd3p-13" value="&lt;font style=&quot;font-size: 10px;&quot;&gt;crm_prod_info&lt;/font&gt;" style="rounded=1;whiteSpace=wrap;html=1;fillColor=#ffe6cc;strokeColor=#d79b00;" parent="1" vertex="1">
          <mxGeometry x="1192.5" y="275" width="87.5" height="27" as="geometry" />
        </mxCell>
        <mxCell id="FeYoDRjKLg40EUXZpd3p-17" value="&lt;span style=&quot;font-size: 10px;&quot;&gt;erp_cust_az12&lt;/span&gt;" style="rounded=1;whiteSpace=wrap;html=1;fillColor=#ffe6cc;strokeColor=#d79b00;" parent="1" vertex="1">
          <mxGeometry x="1190" y="330" width="85" height="27" as="geometry" />
        </mxCell>
        <mxCell id="FeYoDRjKLg40EUXZpd3p-18" value="&lt;font size=&quot;1&quot;&gt;erp_loc_a101&lt;/font&gt;" style="rounded=1;whiteSpace=wrap;html=1;fillColor=#ffe6cc;strokeColor=#d79b00;" parent="1" vertex="1">
          <mxGeometry x="1190" y="377" width="85" height="27" as="geometry" />
        </mxCell>
        <mxCell id="FeYoDRjKLg40EUXZpd3p-19" value="&lt;font style=&quot;font-size: 10px;&quot;&gt;erp_px_cat_g1v2&lt;/font&gt;" style="rounded=1;whiteSpace=wrap;html=1;fillColor=#ffe6cc;strokeColor=#d79b00;" parent="1" vertex="1">
          <mxGeometry x="1190" y="422" width="87.5" height="27" as="geometry" />
        </mxCell>
        <mxCell id="CHF7Ts3Sy9HAa7SA-2jZ-1" value="" style="rounded=1;whiteSpace=wrap;html=1;fillStyle=hatch;fillColor=#f5f5f5;fontColor=#333333;strokeColor=#666666;" vertex="1" parent="1">
          <mxGeometry x="1350" y="150" width="110" height="340" as="geometry" />
        </mxCell>
        <mxCell id="CHF7Ts3Sy9HAa7SA-2jZ-2" value="Silver Layer" style="rounded=1;whiteSpace=wrap;html=1;fillColor=#f5f5f5;strokeColor=#666666;fontColor=#333333;" vertex="1" parent="1">
          <mxGeometry x="1355" y="120" width="100" height="27" as="geometry" />
        </mxCell>
        <mxCell id="CHF7Ts3Sy9HAa7SA-2jZ-3" value="&lt;span style=&quot;font-size: 10px;&quot;&gt;crm_sales_details&lt;/span&gt;" style="rounded=1;whiteSpace=wrap;html=1;fillColor=#f5f5f5;strokeColor=#666666;fontColor=#333333;" vertex="1" parent="1">
          <mxGeometry x="1362.5" y="183" width="85" height="27" as="geometry" />
        </mxCell>
        <mxCell id="CHF7Ts3Sy9HAa7SA-2jZ-4" value="&lt;font size=&quot;1&quot;&gt;crm_cust_info&lt;/font&gt;" style="rounded=1;whiteSpace=wrap;html=1;fillColor=#f5f5f5;strokeColor=#666666;fontColor=#333333;" vertex="1" parent="1">
          <mxGeometry x="1362.5" y="230" width="85" height="27" as="geometry" />
        </mxCell>
        <mxCell id="CHF7Ts3Sy9HAa7SA-2jZ-5" value="&lt;font style=&quot;font-size: 10px;&quot;&gt;crm_prod_info&lt;/font&gt;" style="rounded=1;whiteSpace=wrap;html=1;fillColor=#f5f5f5;strokeColor=#666666;fontColor=#333333;" vertex="1" parent="1">
          <mxGeometry x="1362.5" y="275" width="87.5" height="27" as="geometry" />
        </mxCell>
        <mxCell id="CHF7Ts3Sy9HAa7SA-2jZ-6" value="&lt;span style=&quot;font-size: 10px;&quot;&gt;erp_cust_az12&lt;/span&gt;" style="rounded=1;whiteSpace=wrap;html=1;fillColor=#f5f5f5;strokeColor=#666666;fontColor=#333333;" vertex="1" parent="1">
          <mxGeometry x="1360" y="330" width="85" height="27" as="geometry" />
        </mxCell>
        <mxCell id="CHF7Ts3Sy9HAa7SA-2jZ-7" value="&lt;font size=&quot;1&quot;&gt;erp_loc_a101&lt;/font&gt;" style="rounded=1;whiteSpace=wrap;html=1;fillColor=#f5f5f5;strokeColor=#666666;fontColor=#333333;" vertex="1" parent="1">
          <mxGeometry x="1360" y="377" width="85" height="27" as="geometry" />
        </mxCell>
        <mxCell id="CHF7Ts3Sy9HAa7SA-2jZ-8" value="&lt;font style=&quot;font-size: 10px;&quot;&gt;erp_px_cat_g1v2&lt;/font&gt;" style="rounded=1;whiteSpace=wrap;html=1;fillColor=#f5f5f5;strokeColor=#666666;fontColor=#333333;" vertex="1" parent="1">
          <mxGeometry x="1360" y="422" width="87.5" height="27" as="geometry" />
        </mxCell>
        <mxCell id="CHF7Ts3Sy9HAa7SA-2jZ-10" style="edgeStyle=orthogonalEdgeStyle;rounded=0;orthogonalLoop=1;jettySize=auto;html=1;entryX=0;entryY=0.5;entryDx=0;entryDy=0;" edge="1" parent="1">
          <mxGeometry relative="1" as="geometry">
            <mxPoint x="1280.5" y="243.5" as="sourcePoint" />
            <mxPoint x="1365.5" y="243.5" as="targetPoint" />
          </mxGeometry>
        </mxCell>
        <mxCell id="CHF7Ts3Sy9HAa7SA-2jZ-11" style="edgeStyle=orthogonalEdgeStyle;rounded=0;orthogonalLoop=1;jettySize=auto;html=1;entryX=0;entryY=0.5;entryDx=0;entryDy=0;" edge="1" parent="1">
          <mxGeometry relative="1" as="geometry">
            <mxPoint x="1280" y="288" as="sourcePoint" />
            <mxPoint x="1365" y="288" as="targetPoint" />
          </mxGeometry>
        </mxCell>
        <mxCell id="CHF7Ts3Sy9HAa7SA-2jZ-12" style="edgeStyle=orthogonalEdgeStyle;rounded=0;orthogonalLoop=1;jettySize=auto;html=1;entryX=0;entryY=0.5;entryDx=0;entryDy=0;" edge="1" parent="1">
          <mxGeometry relative="1" as="geometry">
            <mxPoint x="1277.5" y="343" as="sourcePoint" />
            <mxPoint x="1362.5" y="343" as="targetPoint" />
          </mxGeometry>
        </mxCell>
        <mxCell id="CHF7Ts3Sy9HAa7SA-2jZ-13" style="edgeStyle=orthogonalEdgeStyle;rounded=0;orthogonalLoop=1;jettySize=auto;html=1;entryX=0;entryY=0.5;entryDx=0;entryDy=0;" edge="1" parent="1">
          <mxGeometry relative="1" as="geometry">
            <mxPoint x="1277.5" y="390" as="sourcePoint" />
            <mxPoint x="1362.5" y="390" as="targetPoint" />
          </mxGeometry>
        </mxCell>
        <mxCell id="CHF7Ts3Sy9HAa7SA-2jZ-14" style="edgeStyle=orthogonalEdgeStyle;rounded=0;orthogonalLoop=1;jettySize=auto;html=1;entryX=0;entryY=0.5;entryDx=0;entryDy=0;" edge="1" parent="1">
          <mxGeometry relative="1" as="geometry">
            <mxPoint x="1277.5" y="435" as="sourcePoint" />
            <mxPoint x="1362.5" y="435" as="targetPoint" />
          </mxGeometry>
        </mxCell>
      </root>
    </mxGraphModel>
  </diagram>
</mxfile>
